<svg width="147" height="170" viewBox="0 0 147 170" fill="none" xmlns="http://www.w3.org/2000/svg">
<path d="M14.1818 110.846V59.1538C14.1818 57.4401 13.4874 55.7966 12.2514 54.5849C11.0153 53.3731 9.33893 52.6923 7.59091 52.6923C5.84289 52.6923 4.16647 53.3731 2.93043 54.5849C1.6944 55.7966 1 57.4401 1 59.1538V110.846C1 112.56 1.6944 114.203 2.93043 115.415C4.16647 116.627 5.84289 117.308 7.59091 117.308C9.33893 117.308 11.0153 116.627 12.2514 115.415C13.4874 114.203 14.1818 112.56 14.1818 110.846ZM40.5455 169C38.7974 169 37.121 168.319 35.885 167.107C34.6489 165.896 33.9545 164.252 33.9545 162.538V7.46154C33.9545 5.74784 34.6489 4.10432 35.885 2.89254C37.121 1.68077 38.7974 1 40.5455 1C42.2935 1 43.9699 1.68077 45.2059 2.89254C46.442 4.10432 47.1364 5.74784 47.1364 7.46154V162.538C47.1364 164.252 46.442 165.896 45.2059 167.107C43.9699 168.319 42.2935 169 40.5455 169ZM73.5 143.154C71.752 143.154 70.0756 142.473 68.8395 141.261C67.6035 140.05 66.9091 138.406 66.9091 136.692V33.3077C66.9091 31.594 67.6035 29.9505 68.8395 28.7387C70.0756 27.5269 71.752 26.8462 73.5 26.8462C75.248 26.8462 76.9244 27.5269 78.1605 28.7387C79.3965 29.9505 80.0909 31.594 80.0909 33.3077V136.692C80.0909 138.406 79.3965 140.05 78.1605 141.261C76.9244 142.473 75.248 143.154 73.5 143.154ZM106.455 117.308C104.707 117.308 103.03 116.627 101.794 115.415C100.558 114.203 99.8636 112.56 99.8636 110.846V59.1538C99.8636 57.4401 100.558 55.7966 101.794 54.5849C103.03 53.3731 104.707 52.6923 106.455 52.6923C108.203 52.6923 109.879 53.3731 111.115 54.5849C112.351 55.7966 113.045 57.4401 113.045 59.1538V110.846C113.045 112.56 112.351 114.203 111.115 115.415C109.879 116.627 108.203 117.308 106.455 117.308ZM139.409 130.231C137.661 130.231 135.985 129.55 134.749 128.338C133.513 127.126 132.818 125.483 132.818 123.769V46.2308C132.818 44.5171 133.513 42.8735 134.749 41.6618C135.985 40.45 137.661 39.7692 139.409 39.7692C141.157 39.7692 142.834 40.45 144.07 41.6618C145.306 42.8735 146 44.5171 146 46.2308V123.769C146 125.483 145.306 127.126 144.07 128.338C142.834 129.55 141.157 130.231 139.409 130.231Z" fill="#FF5E64" stroke="#FF5E64" stroke-width="1.5"/>
</svg>
